# xmcd
#
# Track frame offsets: 
#        150
#        30048
#        48852
#        74164
#        98799
#        124526
#        148512
#        173368
#        194744
#        221082
#        249766
#        270500
#        291782
#        309056
#
# Disc length: 4388 seconds
#
# Revision: 4
# Processed by: cddbd v1.5.2PL0 Copyright (c) Steve Scherf et al.
# Submitted via: ExactAudioCopy v1.3
#
DISCID=bc11220e
DTITLE=????????? ?????? - ????? ???????? ??????
DYEAR=2000
DGENRE=Other
TTITLE0=??? ??????? ?????
TTITLE1=????? ????????? ?????
TTITLE2=??????? ????????
TTITLE3=??? ?????????? ????
TTITLE4=??????? ?? ???? ? ?????
TTITLE5=?????????? ?????
TTITLE6=??????? ?? ?????
TTITLE7=?? ??????
TTITLE8=??? ????????????
TTITLE9=???? ??? - ? ????? ? ???????
TTITLE10=??? ???????????
TTITLE11=????? ? ????
TTITLE12=?????
TTITLE13=???? ????????? ?????
EXTD=
EXTT0=
EXTT1=
EXTT2=
EXTT3=
EXTT4=
EXTT5=
EXTT6=
EXTT7=
EXTT8=
EXTT9=
EXTT10=
EXTT11=
EXTT12=
EXTT13=
PLAYORDER=
